<svg width="18" height="18" viewBox="0 0 18 18" fill="none" xmlns="http://www.w3.org/2000/svg">
  <path d="M17.64 9.20455C17.64 8.56636 17.5827 7.95273 17.4764 7.36364H9V10.8455H13.8436C13.635 11.97 13.0009 12.9227 12.0482 13.5609V15.8191H14.9564C16.6582 14.2527 17.64 11.9455 17.64 9.20455Z" fill="#4285F4"/>
  <path d="M9 18C11.43 18 13.4673 17.1941 14.9564 15.8191L12.0482 13.5609C11.2423 14.1009 10.2123 14.4205 9 14.4205C6.65591 14.4205 4.67182 12.8373 3.96409 10.71H0.957275V13.0418C2.43818 15.9827 5.48182 18 9 18Z" fill="#34A853"/>
  <path d="M3.96409 10.71C3.78409 10.17 3.68182 9.59318 3.68182 9C3.68182 8.40682 3.78409 7.83 3.96409 7.29V4.95818H0.957273C0.347728 6.17273 0 7.54636 0 9C0 10.4536 0.347728 11.8273 0.957273 13.0418L3.96409 10.71Z" fill="#FBBC05"/>
  <path d="M9 3.57955C10.3232 3.57955 11.5105 4.03409 12.4445 4.92682L15.0218 2.34955C13.4632 0.895909 11.4259 0 9 0C5.48182 0 2.43818 2.01727 0.957275 4.95818L3.96409 7.29C4.67182 5.16273 6.65591 3.57955 9 3.57955Z" fill="#EA4335"/>
</svg>
